<svg width="484" height="484" viewBox="0 0 484 484" fill="none" xmlns="http://www.w3.org/2000/svg">
<g filter="url(#filter0_d)">
<rect x="4" width="476" height="476" fill="white"/>
<rect x="6.5" y="2.5" width="471" height="471" stroke="black" stroke-width="5"/>
</g>
<path d="M317.456 285.6C286.064 316.704 222.128 334.272 152.72 341.76C156.752 346.656 160.784 354.144 162.8 359.616C235.376 350.112 301.04 330.24 335.888 294.528L317.456 285.6ZM280.016 253.344C255.536 272.064 209.168 287.616 169.136 295.68C173.456 299.712 178.352 306.336 180.944 310.944C222.992 301.44 269.36 284.448 297.296 261.696L280.016 253.344ZM250.352 219.936C231.92 233.472 197.936 246.144 170.288 253.344C174.896 256.512 179.792 262.56 182.96 266.304C211.472 258.24 245.744 244.416 267.056 228L250.352 219.936ZM370.448 206.112V187.68H222.704C227.6 179.328 231.92 170.4 235.952 161.184C264.752 160.032 295.28 158.88 324.944 157.728C332.72 164.928 339.632 171.552 344.528 177.6L362.096 165.792C346.832 147.936 315.152 123.168 289.232 107.04L272.528 117.12C282.896 124.032 294.128 132.384 304.784 140.736C267.632 141.888 230.192 142.752 196.496 143.328C206.864 130.656 217.808 115.104 227.024 101.28L203.984 94.944C196.784 109.632 184.112 129.216 172.88 143.904L125.072 144.768L127.664 164.352C151.28 163.776 180.656 162.912 212.624 162.048C208.592 170.976 203.984 179.616 198.512 187.68H114.128V206.112H184.688C163.664 230.88 136.016 249.888 104.336 262.848C108.944 266.88 117.296 275.232 120.176 279.552C155.888 262.56 187.28 238.368 210.608 206.112H274.256C295.856 236.064 329.84 263.712 362.384 278.112C365.552 272.928 371.888 265.44 376.496 261.408C348.272 250.464 317.744 229.44 297.872 206.112H370.448Z" fill="black"/>
<defs>
<filter id="filter0_d" x="0" y="0" width="484" height="484" filterUnits="userSpaceOnUse" color-interpolation-filters="sRGB">
<feFlood flood-opacity="0" result="BackgroundImageFix"/>
<feColorMatrix in="SourceAlpha" type="matrix" values="0 0 0 0 0 0 0 0 0 0 0 0 0 0 0 0 0 0 127 0"/>
<feOffset dy="4"/>
<feGaussianBlur stdDeviation="2"/>
<feColorMatrix type="matrix" values="0 0 0 0 0 0 0 0 0 0 0 0 0 0 0 0 0 0 0.25 0"/>
<feBlend mode="normal" in2="BackgroundImageFix" result="effect1_dropShadow"/>
<feBlend mode="normal" in="SourceGraphic" in2="effect1_dropShadow" result="shape"/>
</filter>
</defs>
</svg>
